<?xml version="1.0" encoding="UTF-8"?>
<svg width="156px" height="32px" id="evercall-logo_2010_Image" xmlns="http://www.w3.org/2000/svg" viewBox="0 0 744.93 148.55">
    <defs>
        <style>
            .cls-1 {
            fill: #e50e0e;
            stroke: #000;
            stroke-miterlimit: 10;
            stroke-width: 0.5px;
            }
        </style>
    </defs>
    <title>evercall-logo 2013-ORIGINALLOGO - FLAT</title>
    <g>
        <path class="cls-1"
              d="M84.57,106.49H32.43a35.27,35.27,0,0,0,3.66,16,24.51,24.51,0,0,0,22.51,14,31.9,31.9,0,0,0,8.74-1.13A28.34,28.34,0,0,0,75,131.83a59.5,59.5,0,0,0,6.84-5.13q3.12-2.73,8.1-7.42a8.78,8.78,0,0,1,5.86-1.76,9.63,9.63,0,0,1,6.64,2.25,8,8,0,0,1,2.54,6.34q0,3.62-2.83,8.45a33.52,33.52,0,0,1-8.54,9.28,48.71,48.71,0,0,1-14.36,7.37,61.64,61.64,0,0,1-19.87,2.93q-25.69,0-39.94-14.65T5.18,99.75A66.43,66.43,0,0,1,8.69,77.82,48.46,48.46,0,0,1,19,60.49a44.35,44.35,0,0,1,16.6-11.08,59.46,59.46,0,0,1,21.88-3.86q15.62,0,26.8,6.59a43.27,43.27,0,0,1,16.75,17,44.83,44.83,0,0,1,5.57,21.29q0,10.07-5.77,13T84.57,106.49ZM32.43,91.35H80.77q-1-13.68-7.38-20.46T56.55,64.1A21.34,21.34,0,0,0,40.19,71Q33.79,77.88,32.43,91.35Z"
              transform="translate(-4.93 -5.84)"></path>
        <path class="cls-1"
              d="M142.87,62.34l21.59,60.55L187.7,59.71q2.73-7.62,5.37-10.79t8-3.18a12,12,0,0,1,8.64,3.42,10.64,10.64,0,0,1,3.56,7.91,16.08,16.08,0,0,1-.63,4.1,38.45,38.45,0,0,1-1.46,4.4c-.56,1.36-1.19,2.93-1.91,4.68l-25.59,63.48c-.71,1.82-1.64,4.14-2.78,6.94a36,36,0,0,1-3.81,7.17,15,15,0,0,1-5.17,4.64,15.5,15.5,0,0,1-7.47,1.66q-5.67,0-9-2.59a17.56,17.56,0,0,1-5-5.66q-1.6-3.07-5.42-12.16L119.63,70.94c-.58-1.56-1.19-3.13-1.8-4.69a42.39,42.39,0,0,1-1.57-4.78,17.24,17.24,0,0,1-.63-4.2,10.17,10.17,0,0,1,1.66-5.42,13,13,0,0,1,4.59-4.4,12.37,12.37,0,0,1,6.35-1.71q6.63,0,9.13,3.81T142.87,62.34Z"
              transform="translate(-4.93 -5.84)"></path>
        <path class="cls-1"
              d="M304.2,106.49H252.05a35.4,35.4,0,0,0,3.67,16,24.51,24.51,0,0,0,22.51,14,31.9,31.9,0,0,0,8.74-1.13,28.34,28.34,0,0,0,7.66-3.51,59.5,59.5,0,0,0,6.84-5.13q3.12-2.73,8.1-7.42a8.76,8.76,0,0,1,5.86-1.76,9.63,9.63,0,0,1,6.64,2.25,8,8,0,0,1,2.54,6.34q0,3.62-2.83,8.45a33.68,33.68,0,0,1-8.54,9.28,48.71,48.71,0,0,1-14.36,7.37A61.64,61.64,0,0,1,279,154.14q-25.69,0-39.94-14.65T224.81,99.75a66.43,66.43,0,0,1,3.51-21.93,48.46,48.46,0,0,1,10.26-17.33,44.35,44.35,0,0,1,16.6-11.08,59.4,59.4,0,0,1,21.87-3.86q15.63,0,26.81,6.59a43.33,43.33,0,0,1,16.75,17,44.83,44.83,0,0,1,5.57,21.29q0,10.07-5.77,13T304.2,106.49ZM252.05,91.35h48.34q-1-13.68-7.37-20.46T276.18,64.1A21.33,21.33,0,0,0,259.82,71Q253.42,77.88,252.05,91.35Z"
              transform="translate(-4.93 -5.84)"></path>
        <path class="cls-1"
              d="M375.1,115.67v22.26q0,8.12-3.81,12.16a12.7,12.7,0,0,1-9.67,4,12.22,12.22,0,0,1-9.47-4.1q-3.7-4.09-3.71-12.11V63.71q0-18,13-18,6.65,0,9.57,4.2t3.22,12.4Q379,54.15,384,49.94t13.42-4.2a34.36,34.36,0,0,1,16.31,4.2q7.92,4.2,7.91,11.14a10.56,10.56,0,0,1-3.37,8A10.43,10.43,0,0,1,411,72.31c-1,0-3.34-.61-7.08-1.81a32.81,32.81,0,0,0-9.91-1.81,14.49,14.49,0,0,0-9.57,3.08,19.7,19.7,0,0,0-5.77,9.13,64.16,64.16,0,0,0-2.83,14.4Q375.1,103.66,375.1,115.67Z"
              transform="translate(-4.93 -5.84)"></path>
        <path class="cls-1"
              d="M526.66,121.13a23.08,23.08,0,0,1-3,10.65,36.76,36.76,0,0,1-9.09,10.79,46.79,46.79,0,0,1-15.38,8.25,65.32,65.32,0,0,1-20.9,3.13q-24.7,0-38.57-14.41t-13.87-38.62q0-16.41,6.35-29a45.56,45.56,0,0,1,18.36-19.49q12-6.88,28.71-6.88a57,57,0,0,1,19,3,49.28,49.28,0,0,1,14.65,7.81,37.29,37.29,0,0,1,9.18,10.2A20.23,20.23,0,0,1,525.3,76.7a10.67,10.67,0,0,1-3.57,8.11,12.23,12.23,0,0,1-8.64,3.32,8.72,8.72,0,0,1-5.52-1.71,27.16,27.16,0,0,1-4.93-5.52,40.46,40.46,0,0,0-10.2-11.13q-5.32-3.72-13.53-3.71a23,23,0,0,0-19,9.22q-7.23,9.24-7.23,25.25a48.68,48.68,0,0,0,1.86,13.82,31.13,31.13,0,0,0,5.37,10.74,23,23,0,0,0,8.49,6.74,25.83,25.83,0,0,0,10.94,2.29A24.58,24.58,0,0,0,493,130.41q5.72-3.7,10.11-11.33a26.25,26.25,0,0,1,5.27-7,10,10,0,0,1,6.94-2.54,10.29,10.29,0,0,1,8.1,3.71A11.9,11.9,0,0,1,526.66,121.13Z"
              transform="translate(-4.93 -5.84)"></path>
        <path class="cls-1"
              d="M617.29,139.1a82.22,82.22,0,0,1-18.7,11.28,52.26,52.26,0,0,1-20.27,3.76,38.38,38.38,0,0,1-18-4,29.59,29.59,0,0,1-12-11,28.48,28.48,0,0,1-4.2-15,26.93,26.93,0,0,1,6.94-18.65q6.93-7.71,19-10.35,2.53-.59,12.6-2.64T600,88.66q7.17-1.71,15.57-4.15Q615.05,74,611.28,69T595.71,64.1q-10.15,0-15.29,2.83a25,25,0,0,0-8.79,8.5,88.61,88.61,0,0,1-5.17,7.47c-1,1.21-3.17,1.81-6.5,1.81a11.36,11.36,0,0,1-7.76-2.88,9.39,9.39,0,0,1-3.27-7.38,22.57,22.57,0,0,1,5-13.67q5-6.63,15.53-10.94t26.27-4.29q17.58,0,27.63,4.15t14.21,13.13q4.16,9,4.15,23.83,0,9.38-.05,15.92t-.14,14.55A53.57,53.57,0,0,0,644,132.8q2.49,8.16,2.49,10.5,0,4.11-3.86,7.47a12.92,12.92,0,0,1-8.74,3.37c-2.73,0-5.44-1.28-8.1-3.86A56.74,56.74,0,0,1,617.29,139.1Zm-1.76-38.57a135.88,135.88,0,0,1-17,4.54q-11.18,2.4-15.48,3.51a21.11,21.11,0,0,0-8.2,4.4q-3.91,3.27-3.91,9.13a13.51,13.51,0,0,0,4.59,10.3q4.59,4.26,12,4.25a31.13,31.13,0,0,0,14.6-3.47,23.14,23.14,0,0,0,9.82-8.93q3.62-6.06,3.61-19.92Z"
              transform="translate(-4.93 -5.84)"></path>
        <path class="cls-1"
              d="M668.75,137.93V22.31q0-8,3.57-12.11a12.07,12.07,0,0,1,9.62-4.11,12.62,12.62,0,0,1,9.76,4.06q3.72,4,3.71,12.16V137.93q0,8.12-3.76,12.16a12.63,12.63,0,0,1-9.71,4,12,12,0,0,1-9.52-4.2Q668.75,145.74,668.75,137.93Z"
              transform="translate(-4.93 -5.84)"></path>
        <path class="cls-1"
              d="M723,137.93V22.31q0-8,3.57-12.11a12.07,12.07,0,0,1,9.62-4.11,12.62,12.62,0,0,1,9.76,4.06q3.71,4,3.71,12.16V137.93q0,8.12-3.76,12.16a12.63,12.63,0,0,1-9.71,4,12,12,0,0,1-9.52-4.2Q722.95,145.74,723,137.93Z"
              transform="translate(-4.93 -5.84)"></path>
    </g>
</svg>
